<svg width="56" height="55" viewBox="0 0 56 55" fill="none" xmlns="http://www.w3.org/2000/svg">
<path d="M41.0091 12.5842C37.5337 13.9577 35.1663 14.2586 33.5521 13.5282C31.3818 12.5427 30.1639 9.5176 28.5435 4.97995C24.1262 -4.70951 15.472 3.12505 15.472 3.12505C15.472 3.12505 22.4165 0.0480744 24.7611 9.67114C25.3835 12.2149 26.4043 14.7379 28.1285 16.1716C29.6575 17.4463 31.5906 18.1348 33.5812 18.1136C41.258 18.1136 44.4616 11.2127 44.4616 11.2127L41.0091 12.5842Z" fill="white"/>
<path d="M37.4383 15.331C33.1496 16.3684 29.056 14.1047 27.7218 9.79323C23.9374 -2.42751 15.4803 3.12266 15.4803 3.12266C15.4803 3.12266 22.4248 0.0456839 24.7694 9.66874C25.3918 12.2125 26.4126 14.7355 28.1368 16.1692C29.6634 17.4428 31.5932 18.1319 33.5812 18.1133C41.258 18.1133 44.4616 11.2124 44.4616 11.2124L44.1752 11.3245C42.1938 13.0984 40.0277 14.7023 37.4383 15.331Z" fill="#D8ECFF"/>
<path d="M37.3019 11.1319C38.7163 9.92601 38.8853 7.80189 37.6795 6.38751C36.4736 4.97314 34.3495 4.8041 32.9351 6.00996C31.5207 7.21582 31.3517 9.33994 32.5575 10.7543C33.7634 12.1687 35.8875 12.3377 37.3019 11.1319Z" fill="white"/>
<path d="M37.8365 9.76473C35.4442 10.4453 32.8673 8.57378 32.8694 6.06738C28.838 10.0407 36.3613 14.8854 38.322 9.59459C38.1643 9.6624 38.0021 9.71925 37.8365 9.76473Z" fill="#D8ECFF"/>
<path d="M18.5283 10.7543C18.632 14.489 18.1133 16.817 16.8684 18.0847C15.2086 19.7882 11.9407 19.8961 7.11672 19.867C-3.50018 20.6969 0.906756 31.5089 0.906756 31.5089C0.906756 31.5089 0.390124 23.9295 10.2435 25.0188C12.8453 25.3072 15.5654 25.2055 17.5054 24.0768C19.2267 23.0766 20.5353 21.4958 21.1965 19.618C23.815 12.4018 18.4349 7.03418 18.4349 7.03418L18.5283 10.7543Z" fill="white"/>
<path d="M18.4351 7.03418C21.4125 11.5034 21.9436 22.6348 11.1006 22.4875C5.4757 22.3236 -0.383613 24.9379 0.91938 31.5089C1.86965 21.4439 9.63366 27.1829 17.5076 24.0789C25.3961 19.5496 20.4269 8.0467 18.4351 7.03418Z" fill="#D8ECFF"/>
<path d="M13.8931 11.7539C14.5183 11.9818 15.0619 12.39 15.4552 12.9268C15.8485 13.4636 16.0738 14.1049 16.1027 14.7697C16.1316 15.4346 15.9627 16.093 15.6174 16.6619C15.2721 17.2308 14.766 17.6845 14.1629 17.9658C13.5598 18.247 12.8868 18.3432 12.2291 18.2421C11.5714 18.1409 10.9584 17.8471 10.4676 17.3976C9.97686 16.9482 9.63035 16.3634 9.47191 15.7171C9.31346 15.0707 9.35019 14.392 9.57744 13.7665C9.72823 13.3507 9.95957 12.9687 10.2582 12.6424C10.5568 12.3161 10.9169 12.0519 11.3178 11.865C11.7186 11.678 12.1525 11.572 12.5944 11.5529C13.0363 11.5339 13.4776 11.6022 13.8931 11.7539Z" fill="white"/>
<path d="M15.2771 12.7041C15.4576 15.5155 12.2271 17.5696 9.71655 16.389C12.003 20.8416 18.4765 16.5259 15.2771 12.7041Z" fill="#D8ECFF"/>
<path d="M11.3577 31.2574C14.9015 32.4359 16.9099 33.7285 17.6755 35.3261C18.7129 37.4756 17.6921 40.5754 16.0156 45.0923C13.1731 55.3544 24.8337 54.9104 24.8337 54.9104C24.8337 54.9104 17.5344 52.8045 21.9289 43.9263C23.0908 41.5796 23.9249 38.9882 23.5286 36.7826C23.1766 34.8227 22.138 33.0521 20.5989 31.7885C14.7168 26.8525 7.83044 30.0809 7.83044 30.0809L11.3577 31.2574Z" fill="#D8ECFF"/>
<path d="M19.0988 33.8886C23.8564 39.7604 14.5943 47.5182 21.5118 52.4438C18.1049 48.8523 24.4311 41.4472 23.5244 36.783C22.3459 28.8073 10.9198 28.0874 8.15405 29.936C8.80762 29.99 15.7106 29.3385 19.0988 33.8886Z" fill="white"/>
<path d="M10.7103 35.9553C11.1381 35.4454 11.7075 35.0738 12.3465 34.8874C12.9855 34.7011 13.6654 34.7085 14.3003 34.9086C14.9351 35.1087 15.4963 35.4926 15.913 36.0117C16.3296 36.5308 16.583 37.1618 16.641 37.8249C16.6991 38.488 16.5592 39.1534 16.239 39.7369C15.9189 40.3205 15.4329 40.7961 14.8425 41.1034C14.2521 41.4108 13.5838 41.5361 12.9221 41.4637C12.2604 41.3912 11.6351 41.1242 11.1252 40.6963C10.4415 40.1226 10.0137 39.3008 9.93592 38.4117C9.8581 37.5227 10.1366 36.6391 10.7103 35.9553Z" fill="#D8ECFF"/>
<path d="M15.4534 35.5404C14.9297 35.1005 14.2842 34.8308 13.6031 34.7674C12.9221 34.704 12.2379 34.8499 11.642 35.1856C14.3143 35.8537 15.4265 39.3643 13.6546 41.4619C16.4971 41.2545 17.7357 37.3247 15.4534 35.5404Z" fill="white"/>
<path d="M28.4295 44.2957C30.7491 41.3681 32.6518 39.924 34.4133 39.7518C36.7869 39.5174 39.3535 41.53 43.0238 44.6484C51.6945 50.8314 55.2653 39.7228 55.2653 39.7228C55.2653 39.7228 50.7899 45.8601 43.9492 38.6978C42.14 36.8056 39.9925 35.1333 37.7828 34.7556C35.8214 34.4132 33.8021 34.781 32.0874 35.7931C25.4376 39.6315 26.116 47.2046 26.116 47.2046L28.4295 44.2957Z" fill="#D8ECFF"/>
<path d="M26.5373 44.8308C27.2853 43.3611 28.1964 41.9802 29.2532 40.7143C31.6393 37.7535 35.2702 36.0314 38.9116 37.9486C40.3536 38.7059 41.4387 39.9611 42.8537 40.7662C44.5032 41.7082 46.5449 42.1895 48.4267 42.3576C49.4992 42.4675 50.5828 42.3617 51.6137 42.0464C49.6779 42.4613 47.049 41.9592 43.9493 38.7017C42.14 36.8095 39.9926 35.1372 37.7829 34.7596C35.8214 34.4171 33.8021 34.7849 32.0874 35.797C27.1348 38.6561 26.2489 43.5859 26.1182 45.918C26.2297 45.5453 26.3698 45.1818 26.5373 44.8308Z" fill="white"/>
<path d="M35.5355 48.1927C37.3942 48.1927 38.9009 46.6859 38.9009 44.8273C38.9009 42.9686 37.3942 41.4619 35.5355 41.4619C33.6769 41.4619 32.1702 42.9686 32.1702 44.8273C32.1702 46.6859 33.6769 48.1927 35.5355 48.1927Z" fill="white"/>
<path d="M32.6165 45.4989C32.824 45.2333 33.0314 44.9677 33.2389 44.7042C33.7183 44.223 34.3147 43.8748 34.9693 43.6938L36.0068 43.5548C37.0389 43.5979 38.0224 44.0051 38.7829 44.7042C38.8244 44.7437 38.8617 44.7872 38.9011 44.8287C38.9039 44.2373 38.7492 43.6558 38.453 43.144C38.037 42.404 37.3567 41.8487 36.5484 41.5894C35.7401 41.3302 34.8637 41.3861 34.0949 41.7461C33.3262 42.106 32.722 42.7434 32.4035 43.5302C32.085 44.3171 32.0759 45.1952 32.3779 45.9886C32.4466 45.8203 32.5263 45.6567 32.6165 45.4989Z" fill="#D8ECFF"/>
<path d="M46.5199 32.7105C44.5633 29.5277 43.8579 27.2475 44.2957 25.5316C44.8891 23.2264 47.659 21.5064 51.8397 19.1183C60.6163 13.0868 51.3978 5.93066 51.3978 5.93066C51.3978 5.93066 55.6346 12.2361 46.5635 16.2156C44.167 17.2675 41.8619 18.7158 40.7539 20.6599C39.7637 22.3879 39.4209 24.4121 39.7871 26.3698C41.1212 33.9305 48.4723 35.885 48.4723 35.885L46.5199 32.7105Z" fill="#D8ECFF"/>
<path d="M45.4742 33.7002C42.3889 30.3805 40.7021 26.0441 43.0321 22.0521C44.9783 18.7137 49.9703 17.2675 52.2111 14.3856C55.6325 9.98903 51.402 5.93066 51.402 5.93066C51.402 5.93066 55.6388 12.2361 46.5676 16.2156C44.1712 17.2675 41.866 18.7158 40.7581 20.6599C39.7678 22.3879 39.4251 24.4121 39.7912 26.3698C40.8494 32.3681 45.692 34.8372 47.6507 35.6007C46.8645 35.0403 46.1354 34.4037 45.4742 33.7002Z" fill="white"/>
<path d="M52.2035 28.1539C53.273 26.6338 52.9078 24.5345 51.3877 23.465C49.8676 22.3955 47.7683 22.7607 46.6988 24.2808C45.6292 25.8009 45.9945 27.9002 47.5146 28.9698C49.0347 30.0393 51.134 29.674 52.2035 28.1539Z" fill="#D8ECFF"/>
<path d="M49.7149 22.8648C49.4316 22.8401 49.1463 22.8527 48.8663 22.9022C48.4041 22.9878 47.9649 23.1693 47.5771 23.4351C47.1893 23.7008 46.8615 24.0448 46.6148 24.445C46.368 24.8451 46.2079 25.2925 46.1446 25.7583C46.0814 26.2242 46.1164 26.6981 46.2475 27.1495C46.3785 27.601 46.6027 28.02 46.9056 28.3795C47.2085 28.739 47.5833 29.0311 48.006 29.2369C48.4286 29.4427 48.8897 29.5577 49.3595 29.5745C49.8293 29.5912 50.2974 29.5093 50.7336 29.3341C48.2812 28.22 47.9471 24.6554 49.7149 22.8648Z" fill="white"/>
</svg>
