<svg width="25" height="22" viewBox="0 0 25 22" fill="none" xmlns="http://www.w3.org/2000/svg">
<path d="M3.03413 14.7926C2.53135 14.792 2.04933 14.592 1.69381 14.2365C1.33829 13.881 1.1383 13.399 1.1377 12.8962V12.1376C1.1377 11.6347 1.3375 11.1523 1.69315 10.7967C2.0488 10.441 2.53116 10.2412 3.03413 10.2412C3.53709 10.2412 4.01946 10.441 4.37511 10.7967C4.73076 11.1523 4.93056 11.6347 4.93056 12.1376V12.8962C4.92996 13.399 4.72996 13.881 4.37444 14.2365C4.01892 14.592 3.53691 14.792 3.03413 14.7926ZM3.03413 10.9998C2.73235 10.9998 2.44293 11.1197 2.22954 11.3331C2.01615 11.5464 1.89627 11.8359 1.89627 12.1376V12.8962C1.89627 13.198 2.01615 13.4874 2.22954 13.7008C2.44293 13.9142 2.73235 14.0341 3.03413 14.0341C3.33591 14.0341 3.62532 13.9142 3.83871 13.7008C4.0521 13.4874 4.17199 13.198 4.17199 12.8962V12.1376C4.17199 11.8359 4.0521 11.5464 3.83871 11.3331C3.62532 11.1197 3.33591 10.9998 3.03413 10.9998Z" fill="#006EDA"/>
<path d="M5.68929 17.8273C5.5887 17.8273 5.49223 17.7873 5.4211 17.7162C5.34997 17.645 5.31001 17.5486 5.31001 17.448V16.3101C5.31001 16.1089 5.23009 15.916 5.08783 15.7737C4.94557 15.6315 4.75262 15.5515 4.55143 15.5515H1.51714C1.31596 15.5515 1.12301 15.6315 0.980753 15.7737C0.838493 15.916 0.758572 16.1089 0.758572 16.3101V17.448C0.758572 17.5486 0.718612 17.645 0.647482 17.7162C0.576352 17.7873 0.479879 17.8273 0.379286 17.8273C0.278693 17.8273 0.18222 17.7873 0.11109 17.7162C0.0399604 17.645 0 17.5486 0 17.448V16.3101C0 15.9077 0.159842 15.5219 0.444361 15.2373C0.728881 14.9528 1.11477 14.793 1.51714 14.793H4.55143C4.95381 14.793 5.3397 14.9528 5.62422 15.2373C5.90874 15.5219 6.06858 15.9077 6.06858 16.3101V17.448C6.06858 17.5486 6.02862 17.645 5.95749 17.7162C5.88636 17.7873 5.78989 17.8273 5.68929 17.8273Z" fill="#006EDA"/>
<path d="M21.2399 14.7926C20.7372 14.792 20.2551 14.592 19.8996 14.2365C19.5441 13.881 19.3441 13.399 19.3435 12.8962V12.1376C19.3435 11.6347 19.5433 11.1523 19.899 10.7967C20.2546 10.441 20.737 10.2412 21.2399 10.2412C21.7429 10.2412 22.2253 10.441 22.5809 10.7967C22.9366 11.1523 23.1364 11.6347 23.1364 12.1376V12.8962C23.1358 13.399 22.9358 13.881 22.5803 14.2365C22.2247 14.592 21.7427 14.792 21.2399 14.7926ZM21.2399 10.9998C20.9382 10.9998 20.6487 11.1197 20.4353 11.3331C20.222 11.5464 20.1021 11.8359 20.1021 12.1376V12.8962C20.1021 13.198 20.222 13.4874 20.4353 13.7008C20.6487 13.9142 20.9382 14.0341 21.2399 14.0341C21.5417 14.0341 21.8311 13.9142 22.0445 13.7008C22.2579 13.4874 22.3778 13.198 22.3778 12.8962V12.1376C22.3778 11.8359 22.2579 11.5464 22.0445 11.3331C21.8311 11.1197 21.5417 10.9998 21.2399 10.9998Z" fill="#006EDA"/>
<path d="M23.8951 17.8273C23.7945 17.8273 23.698 17.7873 23.6269 17.7162C23.5558 17.645 23.5158 17.5486 23.5158 17.448V16.3101C23.5158 16.1089 23.4359 15.916 23.2936 15.7737C23.1514 15.6315 22.9584 15.5515 22.7572 15.5515H19.723C19.5218 15.5515 19.3288 15.6315 19.1866 15.7737C19.0443 15.916 18.9644 16.1089 18.9644 16.3101V17.448C18.9644 17.5486 18.9244 17.645 18.8533 17.7162C18.7822 17.7873 18.6857 17.8273 18.5851 17.8273C18.4845 17.8273 18.388 17.7873 18.3169 17.7162C18.2458 17.645 18.2058 17.5486 18.2058 17.448V16.3101C18.2058 15.9077 18.3657 15.5219 18.6502 15.2373C18.9347 14.9528 19.3206 14.793 19.723 14.793H22.7572C23.1596 14.793 23.5455 14.9528 23.83 15.2373C24.1145 15.5219 24.2744 15.9077 24.2744 16.3101V17.448C24.2744 17.5486 24.2344 17.645 24.1633 17.7162C24.0922 17.7873 23.9957 17.8273 23.8951 17.8273Z" fill="#006EDA"/>
<path d="M12.1372 4.55143C11.6344 4.55083 11.1524 4.35084 10.7968 3.99532C10.4413 3.6398 10.2413 3.15778 10.2407 2.655V1.89643C10.2407 1.39347 10.4405 0.911102 10.7962 0.555452C11.1518 0.199802 11.6342 0 12.1372 0C12.6401 0 13.1225 0.199802 13.4781 0.555452C13.8338 0.911102 14.0336 1.39347 14.0336 1.89643V2.655C14.033 3.15778 13.833 3.6398 13.4775 3.99532C13.1219 4.35084 12.6399 4.55083 12.1372 4.55143ZM12.1372 0.758572C11.8354 0.758572 11.546 0.878454 11.3326 1.09184C11.1192 1.30523 10.9993 1.59465 10.9993 1.89643V2.655C10.9993 2.95678 11.1192 3.2462 11.3326 3.45959C11.546 3.67298 11.8354 3.79286 12.1372 3.79286C12.4389 3.79286 12.7284 3.67298 12.9417 3.45959C13.1551 3.2462 13.275 2.95678 13.275 2.655V1.89643C13.275 1.59465 13.1551 1.30523 12.9417 1.09184C12.7284 0.878454 12.4389 0.758572 12.1372 0.758572Z" fill="#006EDA"/>
<path d="M14.7923 7.58605C14.6917 7.58605 14.5953 7.54609 14.5241 7.47496C14.453 7.40383 14.413 7.30735 14.413 7.20676V6.0689C14.413 5.86772 14.3331 5.67477 14.1909 5.53251C14.0486 5.39025 13.8556 5.31033 13.6545 5.31033H10.6202C10.419 5.31033 10.226 5.39025 10.0838 5.53251C9.94152 5.67477 9.8616 5.86772 9.8616 6.0689V7.20676C9.8616 7.30735 9.82164 7.40383 9.75051 7.47496C9.67938 7.54609 9.58291 7.58605 9.48231 7.58605C9.38172 7.58605 9.28525 7.54609 9.21412 7.47496C9.14299 7.40383 9.10303 7.30735 9.10303 7.20676V6.0689C9.10303 5.66653 9.26287 5.28064 9.54739 4.99612C9.83191 4.7116 10.2178 4.55176 10.6202 4.55176H13.6545C14.0568 4.55176 14.4427 4.7116 14.7272 4.99612C15.0118 5.28064 15.1716 5.66653 15.1716 6.0689V7.20676C15.1716 7.30735 15.1316 7.40383 15.0605 7.47496C14.9894 7.54609 14.8929 7.58605 14.7923 7.58605Z" fill="#006EDA"/>
<path d="M12.1372 21.9996C10.8887 22.0032 9.65188 21.7585 8.49882 21.2796C7.34576 20.8008 6.29946 20.0973 5.42081 19.2103C5.38464 19.1753 5.35581 19.1334 5.336 19.0871C5.31619 19.0408 5.30579 18.991 5.30543 18.9406C5.30506 18.8903 5.31473 18.8403 5.33387 18.7938C5.35301 18.7472 5.38123 18.7049 5.41689 18.6693C5.45255 18.6337 5.49494 18.6056 5.54158 18.5866C5.58821 18.5676 5.63817 18.5581 5.68853 18.5586C5.73889 18.5591 5.78864 18.5697 5.83489 18.5896C5.88113 18.6095 5.92294 18.6385 5.95788 18.6748C6.76834 19.4881 7.73137 20.1334 8.79176 20.5737C9.85215 21.014 10.989 21.2407 12.1372 21.2407C13.2854 21.2407 14.4223 21.014 15.4827 20.5737C16.543 20.1334 17.5061 19.4881 18.3165 18.6748C18.3515 18.6385 18.3933 18.6095 18.4395 18.5896C18.4858 18.5697 18.5355 18.5591 18.5859 18.5586C18.6363 18.5581 18.6862 18.5676 18.7328 18.5866C18.7795 18.6056 18.8219 18.6337 18.8575 18.6693C18.8932 18.7049 18.9214 18.7472 18.9406 18.7938C18.9597 18.8403 18.9694 18.8903 18.969 18.9406C18.9686 18.991 18.9582 19.0408 18.9384 19.0871C18.9186 19.1334 18.8898 19.1753 18.8536 19.2103C17.9749 20.0972 16.9286 20.8006 15.7755 21.2794C14.6225 21.7583 13.3857 22.0031 12.1372 21.9996Z" fill="#006EDA"/>
<path d="M20.7221 9.86165C20.6437 9.86165 20.5671 9.83733 20.5031 9.79202C20.439 9.74671 20.3906 9.68265 20.3645 9.60866C19.9257 8.38423 19.2211 7.27218 18.3014 6.35243C17.3818 5.43268 16.2698 4.72805 15.0454 4.28918C14.9971 4.27364 14.9524 4.24859 14.914 4.21549C14.8756 4.18239 14.8442 4.14193 14.8216 4.09648C14.7991 4.05104 14.786 4.00154 14.7829 3.95092C14.7799 3.9003 14.787 3.84958 14.8039 3.80176C14.8208 3.75394 14.8471 3.71 14.8813 3.67253C14.9154 3.63506 14.9568 3.60482 15.0029 3.58361C15.0489 3.56239 15.0988 3.55063 15.1495 3.54902C15.2001 3.54741 15.2506 3.55598 15.298 3.57422C16.6289 4.05104 17.8377 4.81684 18.8375 5.81656C19.8372 6.81628 20.603 8.02508 21.0798 9.35606C21.1 9.41327 21.1062 9.47449 21.0978 9.53458C21.0895 9.59467 21.0668 9.65188 21.0318 9.70141C20.9968 9.75094 20.9504 9.79134 20.8965 9.81922C20.8426 9.8471 20.7828 9.86165 20.7221 9.86165Z" fill="#006EDA"/>
<path d="M3.55241 9.86165C3.49174 9.86165 3.43195 9.8471 3.37807 9.81922C3.32419 9.79134 3.27778 9.75094 3.24274 9.70141C3.2077 9.65188 3.18506 9.59467 3.17671 9.53458C3.16835 9.47449 3.17454 9.41327 3.19474 9.35606C3.67156 8.02508 4.43736 6.81628 5.43708 5.81656C6.4368 4.81684 7.6456 4.05104 8.97658 3.57422C9.0239 3.55598 9.0744 3.54741 9.12509 3.54902C9.17577 3.55063 9.22563 3.56239 9.27169 3.58361C9.31775 3.60482 9.35909 3.63506 9.39327 3.67253C9.42744 3.71 9.45375 3.75394 9.47065 3.80176C9.48754 3.84958 9.49468 3.9003 9.49163 3.95092C9.48858 4.00154 9.47541 4.05104 9.4529 4.09648C9.43038 4.14193 9.39899 4.18239 9.36056 4.21549C9.32214 4.24859 9.27746 4.27364 9.22919 4.28918C8.00478 4.72805 6.89279 5.43268 5.9731 6.35243C5.05341 7.27218 4.34886 8.38423 3.91008 9.60866C3.88395 9.68265 3.83552 9.74671 3.77146 9.79202C3.7074 9.83733 3.63087 9.86165 3.55241 9.86165Z" fill="#006EDA"/>
<path d="M12.5795 18.2071H11.695C11.5062 18.2068 11.324 18.1377 11.1825 18.0127C11.041 17.8878 10.9499 17.7155 10.9262 17.5282L10.8613 17.012C10.7043 16.9491 10.5503 16.8853 10.4035 16.8129L9.98633 17.1395C9.83706 17.2551 9.65076 17.3125 9.46228 17.3007C9.27379 17.289 9.09604 17.209 8.96226 17.0757L8.33682 16.4503C8.20345 16.3166 8.12341 16.1388 8.11168 15.9503C8.09995 15.7618 8.15734 15.5755 8.2731 15.4262L8.59245 15.0155C8.52646 14.8607 8.46274 14.7063 8.41002 14.5504L7.88433 14.4871C7.69731 14.4632 7.52539 14.372 7.40067 14.2306C7.27595 14.0892 7.20695 13.9072 7.20654 13.7187V12.8342C7.20689 12.6454 7.27602 12.4632 7.40098 12.3217C7.52594 12.1802 7.69818 12.0891 7.88547 12.0654L8.40167 12.0009C8.4635 11.8465 8.52722 11.6925 8.60004 11.5435L8.27423 11.1263C8.15856 10.977 8.10122 10.7907 8.11295 10.6022C8.12467 10.4137 8.20466 10.236 8.33795 10.1022L8.9634 9.47673C9.09722 9.34352 9.27496 9.26358 9.46342 9.25185C9.65188 9.24013 9.83817 9.29741 9.98747 9.41301L10.3979 9.73237C10.5496 9.66714 10.7043 9.60342 10.8617 9.54994L10.9262 9.02425C10.95 8.83703 11.0412 8.66488 11.1827 8.53999C11.3242 8.41511 11.5063 8.34604 11.695 8.3457H12.5795C12.7683 8.34605 12.9505 8.41518 13.092 8.54014C13.2335 8.6651 13.3246 8.83734 13.3483 9.02463L13.4132 9.54083C13.5702 9.6038 13.7242 9.66752 13.871 9.73996L14.2882 9.41339C14.4375 9.29779 14.6238 9.2405 14.8122 9.25223C15.0007 9.26396 15.1784 9.3439 15.3123 9.47711L15.9377 10.1026C16.0711 10.2363 16.1511 10.4141 16.1628 10.6026C16.1746 10.7911 16.1172 10.9774 16.0014 11.1266L15.6821 11.5374C15.7484 11.6929 15.8122 11.8469 15.8645 12.0024L16.3902 12.0657C16.5772 12.0897 16.7491 12.1809 16.8739 12.3223C16.9986 12.4637 17.0676 12.6456 17.068 12.8342V13.7187C17.0676 13.9075 16.9985 14.0896 16.8736 14.2311C16.7486 14.3727 16.5764 14.4638 16.3891 14.4875L15.8729 14.552C15.8107 14.7067 15.7469 14.8611 15.6745 15.0094L16.0003 15.4266C16.116 15.5759 16.1733 15.7622 16.1616 15.9507C16.1499 16.1391 16.0699 16.3169 15.9366 16.4507L15.3111 17.0761C15.1774 17.2094 14.9996 17.2894 14.8111 17.3011C14.6226 17.3128 14.4363 17.2555 14.2871 17.1398L13.8767 16.8205C13.725 16.8857 13.5702 16.9494 13.4128 17.0029L13.3483 17.5286C13.3245 17.7158 13.2334 17.888 13.0919 18.0129C12.9504 18.1377 12.7682 18.2068 12.5795 18.2071ZM10.4104 16.057C10.5237 16.057 10.6355 16.083 10.7373 16.1328C10.8572 16.1912 10.9808 16.2419 11.1071 16.2845C11.2423 16.3324 11.3614 16.417 11.451 16.5289C11.5406 16.6409 11.5971 16.7756 11.6142 16.918L11.6787 17.4338L12.5795 17.4486L12.6603 16.9176C12.6775 16.7752 12.7341 16.6405 12.8237 16.5287C12.9134 16.4168 13.0326 16.3322 13.1678 16.2845C13.2937 16.2418 13.4169 16.1911 13.5365 16.1328C13.6658 16.0713 13.8097 16.047 13.9521 16.0628C14.0945 16.0785 14.2297 16.1336 14.3424 16.222L14.7528 16.5413L15.3991 15.914L15.0813 15.4816C14.993 15.3689 14.9379 15.2338 14.9221 15.0915C14.9063 14.9492 14.9304 14.8053 14.9918 14.676C15.0499 14.5563 15.1005 14.4332 15.1435 14.3073C15.1915 14.1719 15.2764 14.0526 15.3886 13.9629C15.5008 13.8732 15.6358 13.8166 15.7784 13.7995L16.3094 13.7187V12.8342L15.7784 12.7534C15.6362 12.736 15.5016 12.6793 15.3897 12.5898C15.2778 12.5002 15.1931 12.3813 15.145 12.2463C15.1025 12.1197 15.0519 11.9961 14.9933 11.8761C14.932 11.7469 14.9079 11.6032 14.9237 11.4611C14.9395 11.3191 14.9946 11.1842 15.0828 11.0716L15.4022 10.6609L14.7748 10.0146L14.3428 10.3324C14.2302 10.4209 14.0951 10.4761 13.9528 10.492C13.8105 10.5079 13.6666 10.4838 13.5372 10.4223C13.4173 10.3639 13.2938 10.3133 13.1674 10.2706C13.0322 10.2228 12.9131 10.1381 12.8235 10.0262C12.7339 9.91426 12.6774 9.77952 12.6603 9.63717L12.5958 9.12134L11.695 9.10428L11.6142 9.63528C11.5971 9.77762 11.5405 9.91232 11.4508 10.0242C11.3611 10.136 11.2419 10.2206 11.1067 10.2683C10.9808 10.3111 10.8577 10.3617 10.7381 10.42C10.6087 10.4816 10.4648 10.5058 10.3224 10.4901C10.18 10.4743 10.0449 10.4192 9.93209 10.3309L9.52019 10.0123L8.8754 10.6389L9.19324 11.0713C9.2816 11.1839 9.33678 11.319 9.35259 11.4613C9.3684 11.6036 9.34422 11.7475 9.28276 11.8769C9.22434 11.9964 9.17366 12.1195 9.13104 12.2455C9.08302 12.3809 8.99814 12.5002 8.88595 12.5899C8.77377 12.6797 8.63875 12.7363 8.49612 12.7534L7.97915 12.8179L7.96512 13.7187L8.49612 13.7995C8.63836 13.8169 8.77296 13.8735 8.88483 13.9631C8.9967 14.0526 9.08143 14.1716 9.12952 14.3066C9.17234 14.4328 9.22301 14.5561 9.28124 14.676C9.34259 14.8053 9.36675 14.949 9.35101 15.0913C9.33527 15.2335 9.28025 15.3685 9.19211 15.4812L8.87313 15.8935L9.49971 16.5383L9.93171 16.2204C10.0688 16.1144 10.2371 16.0569 10.4104 16.057Z" fill="#006EDA"/>
<path d="M12.1373 15.5505C11.6872 15.5505 11.2472 15.417 10.873 15.1669C10.4987 14.9169 10.207 14.5615 10.0348 14.1456C9.86256 13.7298 9.81749 13.2722 9.9053 12.8308C9.99311 12.3893 10.2099 11.9838 10.5281 11.6656C10.8464 11.3473 11.2519 11.1306 11.6933 11.0428C12.1348 10.9549 12.5923 11 13.0082 11.1723C13.424 11.3445 13.7794 11.6362 14.0295 12.0104C14.2795 12.3847 14.413 12.8246 14.413 13.2747C14.4124 13.8781 14.1724 14.4566 13.7458 14.8833C13.3192 15.3099 12.7407 15.5499 12.1373 15.5505ZM12.1373 11.7576C11.8372 11.7576 11.5439 11.8466 11.2944 12.0133C11.0449 12.18 10.8505 12.4169 10.7356 12.6942C10.6208 12.9714 10.5908 13.2764 10.6493 13.5707C10.7078 13.865 10.8523 14.1353 11.0645 14.3475C11.2767 14.5597 11.547 14.7042 11.8413 14.7627C12.1356 14.8213 12.4407 14.7912 12.7179 14.6764C12.9951 14.5616 13.232 14.3671 13.3988 14.1176C13.5655 13.8681 13.6544 13.5748 13.6544 13.2747C13.6544 12.8724 13.4946 12.4865 13.2101 12.202C12.9256 11.9174 12.5397 11.7576 12.1373 11.7576Z" fill="#006EDA"/>
</svg>
