<svg width="22" height="22" viewBox="0 0 22 22" fill="none" xmlns="http://www.w3.org/2000/svg">
<path d="M11 0.0996094C12.0539 0.0996105 13.0961 0.250352 14.0977 0.546875C14.3531 0.622515 14.5186 0.856751 14.5186 1.11035C14.5185 1.16534 14.5106 1.22158 14.4941 1.27734C14.4019 1.58813 14.0756 1.76572 13.7646 1.67383C12.8712 1.40931 11.9408 1.27539 11 1.27539C5.63754 1.27539 1.2754 5.63754 1.27539 11C1.27539 16.3625 5.63753 20.7246 11 20.7246C16.3625 20.7246 20.7246 16.3625 20.7246 11C20.7246 10.0592 20.5907 9.12895 20.3262 8.23535C20.2342 7.92438 20.4118 7.59811 20.7227 7.50586C21.0338 7.41386 21.361 7.59127 21.4531 7.90234C21.7496 8.90403 21.9004 9.94622 21.9004 11C21.9004 13.9117 20.7659 16.6482 18.707 18.707C16.6481 20.7659 13.9117 21.9004 11 21.9004C8.08832 21.9004 5.35179 20.7659 3.29297 18.707C1.23414 16.6482 0.0996094 13.9117 0.0996094 11C0.0996126 8.08833 1.23414 5.35188 3.29297 3.29297C5.35184 1.23415 8.08833 0.0996094 11 0.0996094ZM11 3.5166C11.6722 3.5166 12.3388 3.60608 12.9814 3.78223C13.2423 3.85372 13.4141 4.09045 13.4141 4.34863C13.414 4.37413 13.4127 4.39991 13.4092 4.42578L13.3936 4.50391C13.3078 4.81684 12.9839 5.00091 12.6709 4.91504C12.1293 4.76662 11.5671 4.69141 11 4.69141C7.52133 4.69141 4.69141 7.52133 4.69141 11C4.69141 14.4787 7.52133 17.3086 11 17.3086C14.4787 17.3086 17.3086 14.4787 17.3086 11C17.3086 10.4329 17.2334 9.87073 17.085 9.3291C16.9992 9.01619 17.1832 8.69222 17.4961 8.60645C17.8088 8.52076 18.132 8.70568 18.2178 9.01855C18.3939 9.66123 18.4834 10.3278 18.4834 11C18.4834 15.1264 15.1264 18.4834 11 18.4834C6.87364 18.4834 3.5166 15.1264 3.5166 11C3.51661 6.87365 6.87365 3.5166 11 3.5166ZM11 6.97461C11.1473 6.97461 11.2961 6.98294 11.4424 6.99902C11.7649 7.03438 11.9983 7.32492 11.9629 7.64746C11.9275 7.96992 11.6371 8.20248 11.3145 8.16699C11.2105 8.1556 11.1047 8.15039 11 8.15039C9.42841 8.15039 8.1504 9.42841 8.15039 11C8.15039 12.5716 9.42841 13.8496 11 13.8496C12.5716 13.8496 13.8496 12.5716 13.8496 11C13.8496 10.6755 14.113 10.4121 14.4375 10.4121C14.762 10.4121 15.0254 10.6755 15.0254 11C15.0254 13.2193 13.2193 15.0254 11 15.0254C8.78068 15.0254 6.97461 13.2193 6.97461 11C6.97462 8.78069 8.78068 6.97461 11 6.97461ZM17.585 0.272461C17.7471 0.110397 17.988 0.0574041 18.2031 0.136719C18.4182 0.216065 18.568 0.413025 18.5859 0.641602L18.7812 3.12695L18.7881 3.21289L18.873 3.21875L21.3584 3.41406C21.587 3.43202 21.7839 3.58182 21.8633 3.79688C21.9426 4.01195 21.8896 4.25295 21.7275 4.41504L19.2646 6.87891C19.1689 6.97457 19.0429 7.03434 18.9082 7.04785L15.4727 7.39062L15.4375 7.39355L15.4121 7.41895L11.415 11.415C11.3003 11.5298 11.1505 11.5879 11 11.5879C10.8494 11.5879 10.6997 11.5298 10.585 11.415C10.3555 11.1856 10.3555 10.8144 10.585 10.585L14.5811 6.58789L14.6064 6.56348L14.6094 6.52734L14.9521 3.0918C14.9657 2.95705 15.0254 2.83116 15.1211 2.73535L17.585 0.272461ZM17.3604 2.15723L16.126 3.39258L16.1006 3.41797L16.0967 3.45312L15.8379 6.05273L15.8262 6.17383L15.9473 6.16211L18.5469 5.90332L18.582 5.89941L18.6074 5.87402L19.8428 4.63965L19.9961 4.48633L19.7793 4.46875L18.1953 4.34473C17.9071 4.32207 17.6779 4.09282 17.6553 3.80469L17.5312 2.2207L17.5137 2.00391L17.3604 2.15723Z" fill="#006EDA" stroke="white" stroke-width="0.2"/>
</svg>
