<svg width="14" height="15" viewBox="0 0 14 15" fill="none" xmlns="http://www.w3.org/2000/svg">
<mask id="mask0_190_502" style="mask-type:luminance" maskUnits="userSpaceOnUse" x="0" y="0" width="14" height="15">
<path d="M0 0.5H14V14.5H0V0.5Z" fill="white"/>
</mask>
<g mask="url(#mask0_190_502)">
<path d="M13.1344 5.82314C13.3799 5.99773 13.7215 5.94188 13.8975 5.69839C14.0735 5.45491 14.0172 5.116 13.7718 4.94141L7.94746 0.798542C7.94619 0.797632 7.94491 0.796719 7.94362 0.79582C7.67658 0.609319 7.35033 0.499806 7 0.499804C6.64968 0.499804 6.32343 0.60932 6.05639 0.79582C6.0551 0.796721 6.05381 0.797631 6.05252 0.798542L0.228237 4.94141C-0.0172128 5.116 -0.0735115 5.45491 0.102487 5.69839C0.278486 5.94188 0.620127 5.99773 0.865578 5.82314L6.6871 1.68228C6.77554 1.62082 6.88269 1.58479 7 1.58479C7.11754 1.58479 7.22486 1.62097 7.31339 1.68263L13.1344 5.82314Z" fill="#006EDA"/>
<path d="M11.8642 12.8689C11.8642 13.1692 11.6212 13.4126 11.3214 13.4126H8.71583V11.7815C8.71582 10.8808 7.98676 10.1505 7.08735 10.1505C6.18799 10.1505 5.45888 10.8807 5.45888 11.7815V13.4126H2.85333C2.55354 13.4126 2.31052 13.1692 2.31051 12.8689V7.99222C2.31052 7.82087 2.39116 7.65985 2.52755 7.55736L2.54093 7.54762L2.5462 7.54386L6.77707 4.48485C6.86481 4.42339 6.97107 4.38739 7.08735 4.38739C7.20366 4.38739 7.30992 4.4234 7.39766 4.48485L11.6285 7.54386L11.6338 7.54762C11.7783 7.64946 11.8642 7.81531 11.8642 7.99222V12.8689ZM12.9499 7.99222C12.9499 7.46364 12.6941 6.96803 12.264 6.66222L12.264 6.6622L8.02921 3.60039C8.02746 3.59912 8.02571 3.59787 8.02394 3.59663C7.7589 3.40977 7.43509 3.3 7.08735 3.3C6.73964 3.3 6.41584 3.40978 6.1508 3.59663C6.14904 3.59787 6.14728 3.59912 6.14553 3.60039L1.91077 6.6622V6.66222C1.48067 6.96801 1.22486 7.46361 1.22485 7.99222V12.8689C1.22486 13.7698 1.95397 14.5 2.85333 14.5H6.00171C6.30151 14.5 6.54454 14.2566 6.54454 13.9563V11.7815C6.54455 11.4813 6.78758 11.2379 7.08735 11.2379C7.38715 11.2379 7.63018 11.4813 7.63018 11.7815V13.9563C7.63018 14.2566 7.87322 14.5 8.17301 14.5H11.3214C12.2208 14.5 12.9499 13.7698 12.9499 12.8689V7.99222Z" fill="#006EDA"/>
</g>
</svg>
