<svg width="22" height="20" viewBox="0 0 22 20" fill="none" xmlns="http://www.w3.org/2000/svg">
<path d="M5.5559 2.83445C5.5559 2.6309 5.72526 2.46558 5.93484 2.46558H13.2042C13.4133 2.46558 13.5832 2.63044 13.5832 2.83445C13.5832 3.03845 13.4138 3.20332 13.2042 3.20332H5.93484C5.72526 3.20286 5.5559 3.03799 5.5559 2.83445ZM5.93484 5.71586H13.2042C13.4133 5.71586 13.5832 5.551 13.5832 5.347C13.5832 5.14299 13.4138 4.97813 13.2042 4.97813H5.93484C5.72574 4.97813 5.5559 5.14299 5.5559 5.347C5.5559 5.551 5.72526 5.71586 5.93484 5.71586ZM5.93484 8.22887H13.2042C13.4133 8.22887 13.5832 8.06401 13.5832 7.86C13.5832 7.656 13.4138 7.49114 13.2042 7.49114H5.93484C5.72574 7.49114 5.5559 7.656 5.5559 7.86C5.5559 8.06401 5.72526 8.22887 5.93484 8.22887ZM5.93484 10.7419H11.275C11.4841 10.7419 11.6539 10.577 11.6539 10.373C11.6539 10.169 11.4846 10.0041 11.275 10.0041H5.93484C5.72574 10.0041 5.5559 10.169 5.5559 10.373C5.5559 10.577 5.72526 10.7419 5.93484 10.7419ZM5.93484 13.2544H10.1481C10.3572 13.2544 10.5271 13.0896 10.5271 12.8856C10.5271 12.6816 10.3577 12.5167 10.1481 12.5167H5.93484C5.72574 12.5167 5.5559 12.6816 5.5559 12.8856C5.5559 13.0896 5.72526 13.2544 5.93484 13.2544ZM5.93484 15.7674H9.53406C9.74316 15.7674 9.913 15.6026 9.913 15.3986C9.913 15.1946 9.74364 15.0297 9.53406 15.0297H5.93484C5.72574 15.0297 5.5559 15.1946 5.5559 15.3986C5.5559 15.6026 5.72526 15.7674 5.93484 15.7674ZM21.6952 6.29841L18.1489 9.7504V18.571C18.1489 19.359 17.4904 20 16.6809 20H5.13533C4.32588 20 3.66735 19.359 3.66735 18.571V18.2321H3.31916C2.50971 18.2321 1.85118 17.5911 1.85118 16.8036V14.6217H0.998207C0.447537 14.6217 0 14.1856 0 13.65C0 13.1144 0.448011 12.6783 0.998207 12.6783H1.85165V11.6003H0.998207C0.447537 11.6003 0 11.1642 0 10.6286C0 10.093 0.448011 9.65692 0.998207 9.65692H1.85165V8.57886H0.998207C0.447537 8.57886 0 8.14276 0 7.60718C0 7.07161 0.448011 6.63551 0.998207 6.63551H1.85165V5.55745H0.998207C0.447537 5.55745 0 5.12135 0 4.58577C0 4.0502 0.448011 3.61409 0.998207 3.61409H1.85165V1.42989C1.85165 0.641492 2.51018 0 3.31963 0H14.8657C15.6752 0 16.3337 0.641492 16.3337 1.42989V1.74626L16.7046 1.76836C17.5249 1.81672 18.1598 2.44624 18.1494 3.20147L18.1144 5.61179L18.7474 4.99563L19.5521 4.2123C19.958 3.81718 20.6189 3.81718 21.0253 4.2123L21.6956 4.86484C22.1015 5.25996 22.1015 5.90329 21.6952 6.29841ZM20.0871 6.82109L19.0151 5.77757L12.7316 11.8936L13.8036 12.9371L15.6865 11.1043L15.687 11.1038L17.5022 9.33686L17.5027 9.3364L20.0871 6.82109ZM12.2051 13.4497L13.0562 13.2526L12.4076 12.6212L12.2051 13.4497ZM16.3337 2.48492V7.34469L17.3456 6.35966L17.3915 3.19088C17.3962 2.8303 17.0745 2.52867 16.6582 2.50426L16.3337 2.48492ZM0.998207 4.81787H3.46297C3.59355 4.81787 3.70377 4.71057 3.70377 4.58347C3.70377 4.45637 3.59355 4.34907 3.46297 4.34907H0.998207C0.867636 4.34907 0.757407 4.45637 0.757407 4.58347C0.757407 4.71057 0.867636 4.81787 0.998207 4.81787ZM0.998207 7.83974H3.46297C3.59355 7.83974 3.70377 7.73244 3.70377 7.60534C3.70377 7.47824 3.59355 7.37094 3.46297 7.37094H0.998207C0.867636 7.37094 0.757407 7.47824 0.757407 7.60534C0.757407 7.73244 0.867636 7.83974 0.998207 7.83974ZM0.998207 10.8616H3.46297C3.59355 10.8616 3.70377 10.7543 3.70377 10.6272C3.70377 10.5001 3.59355 10.3928 3.46297 10.3928H0.998207C0.867636 10.3928 0.757407 10.5001 0.757407 10.6272C0.757407 10.7543 0.867636 10.8616 0.998207 10.8616ZM0.998207 13.8835H3.46297C3.59355 13.8835 3.70377 13.7762 3.70377 13.6491C3.70377 13.5197 3.59591 13.4147 3.46297 13.4147H0.998207C0.865271 13.4147 0.757407 13.5197 0.757407 13.6491C0.757407 13.7762 0.867636 13.8835 0.998207 13.8835ZM3.31963 17.4944H14.8657C15.2574 17.4944 15.5758 17.1844 15.5758 16.8031V12.2551L14.0714 13.7195C14.0217 13.7679 13.9593 13.802 13.8912 13.8176L11.7817 14.3058C11.7528 14.3127 11.723 14.3159 11.6942 14.3159C11.5948 14.3159 11.4983 14.2777 11.4264 14.2077C11.3332 14.117 11.2954 13.9862 11.3256 13.8618L11.8271 11.8084C11.8432 11.7421 11.8782 11.6813 11.9279 11.633L15.5758 8.08197V1.42989C15.5758 1.04812 15.2574 0.737278 14.8657 0.737278H3.31963C2.92792 0.737278 2.60953 1.04812 2.60953 1.42989V3.61179H3.46297C4.01364 3.61179 4.46118 4.04789 4.46118 4.58347C4.46118 5.11904 4.01317 5.55515 3.46297 5.55515H2.60953V6.6332H3.46297C4.01364 6.6332 4.46118 7.06931 4.46118 7.60488C4.46118 8.14046 4.01317 8.57656 3.46297 8.57656H2.60953V9.65462H3.46297C4.01364 9.65462 4.46118 10.0907 4.46118 10.6263C4.46118 11.1619 4.01317 11.598 3.46297 11.598H2.60953V12.676H3.46297C4.01364 12.676 4.46118 13.1121 4.46118 13.6477C4.46118 14.1833 4.01317 14.6194 3.46297 14.6194H2.60953V16.8013C2.60953 17.1844 2.92792 17.4944 3.31963 17.4944ZM17.3915 10.4877L16.3332 11.5174V16.8031C16.3332 17.5911 15.6747 18.2316 14.8652 18.2316H4.42523V18.5706C4.42523 18.9519 4.74361 19.2618 5.13533 19.2618H16.6814C17.0731 19.2618 17.3915 18.9519 17.3915 18.5706V10.4877ZM21.1596 5.38614L20.4893 4.73359C20.3805 4.62768 20.1964 4.62768 20.0876 4.73359L19.5507 5.25627L20.6227 6.29979L21.1596 5.77711C21.2684 5.6712 21.2684 5.49206 21.1596 5.38614Z" fill="#006EDA"/>
</svg>
