<svg width="19" height="25" viewBox="0 0 19 25" fill="none" xmlns="http://www.w3.org/2000/svg">
<path d="M13.6091 8.61764C13.7773 9.12744 13.8614 9.66176 13.8614 10.2059C13.8614 10.4216 13.6979 10.5931 13.4923 10.5931C13.2868 10.5931 13.1233 10.4216 13.1233 10.2059C13.1233 9.74999 13.0532 9.29901 12.9131 8.87254C12.5254 7.69117 11.6565 6.7696 10.5306 6.34803C10.3391 6.2745 10.2363 6.05392 10.3064 5.85294C10.3765 5.65196 10.5867 5.54411 10.7782 5.61764C12.1143 6.11764 13.1467 7.21078 13.6091 8.61764ZM15.2862 10.5686C15.1974 12.2941 14.4593 13.8774 13.2074 15.0196C12.2404 15.9019 11.6705 17.1667 11.6097 18.5245C12.815 18.451 13.4643 20.0441 12.5908 20.897C13.441 21.7206 12.8524 23.2843 11.6798 23.2696H11.2874C11.3248 24.2059 10.6101 25 9.71314 25H6.92427C6.02735 25.0049 5.31262 24.2059 5.34999 23.2696H4.95759C3.78505 23.2843 3.19645 21.7206 4.04665 20.897C3.29922 20.1961 3.65892 18.799 4.63059 18.5735C4.43906 18.3578 4.2849 18.1029 4.18213 17.8186C2.42099 17.9559 1.08495 16.0539 1.66421 14.3333C-0.554736 13.2794 -0.554736 9.86274 1.66421 8.80882C1.08495 7.09313 2.42099 5.19117 4.18213 5.32352C5.02299 2.98529 8.31637 3.58333 8.3444 6.09803V17.0441C8.3444 17.6127 8.14353 18.1274 7.81185 18.5245H8.84892V4.72549C8.83957 4.23039 9.27869 3.79902 9.75051 3.85294C12.9505 4.09313 15.5198 7.20588 15.2862 10.5686ZM5.48079 15.8235C5.55554 16.0245 5.45743 16.2451 5.2659 16.3235C5.1678 16.3627 5.08372 16.4167 5.01832 16.4902C4.73803 16.7843 4.81277 17.2696 4.82212 17.3284C5.17248 19.0735 7.58295 18.8333 7.61565 17.049V6.10294C7.60631 4.5196 5.54619 4.06372 4.92956 5.49509C5.42473 5.59803 6.89157 6.91176 5.84049 7.15686C5.48546 7.14705 5.41539 6.65686 5.13043 6.49019C3.74768 5.33823 1.77632 6.91666 2.37894 8.59313C3.07499 8.48529 3.79907 8.78431 4.24753 9.34803C4.37833 9.5098 4.35964 9.75489 4.20081 9.89215C4.04665 10.0294 3.81308 10.0098 3.68228 9.84313C3.58418 9.72058 3.36929 9.49999 3.02828 9.39705C2.6966 9.29411 2.40697 9.35783 2.26683 9.40195C0.36087 9.99019 0.206712 12.8333 2.01924 13.6519C2.26683 13.2353 3.72432 12.0686 3.98125 12.8823C4.03264 13.0882 3.91118 13.299 3.71498 13.3529C1.61749 13.897 1.90712 16.9902 4.07001 17.049C4.07935 16.7255 4.16344 16.2892 4.49511 15.9412C4.73336 15.6814 5.28459 15.3431 5.48079 15.8235ZM10.554 23.2696H6.09275C6.05538 23.7794 6.43844 24.2255 6.92894 24.2255H9.71781C10.2083 24.2304 10.5867 23.7794 10.554 23.2696ZM12.2591 21.8921C12.2591 21.5588 12.0022 21.2843 11.6798 21.2843H4.96693C4.64927 21.2843 4.38767 21.5539 4.38767 21.8921C4.38767 22.2255 4.6446 22.5 4.96693 22.5H11.6845C11.9975 22.4951 12.2591 22.2255 12.2591 21.8921ZM4.96693 19.299C4.20548 19.3186 4.20548 20.4902 4.96693 20.5098H11.6845C12.0022 20.5098 12.2638 20.2402 12.2638 19.9019C12.2638 19.5686 12.0068 19.2941 11.6845 19.2941H4.96693V19.299ZM9.68511 4.62254C9.61971 4.62745 9.59168 4.65196 9.58234 4.72549V18.5245H10.8623C10.9277 16.9412 11.5957 15.4608 12.7216 14.4363C16.2765 11.2451 14.3239 5.0196 9.68511 4.62254ZM14.4313 5.33823L16.1364 3.54902C16.4727 3.18627 15.9635 2.64706 15.6132 3L13.9081 4.78921C13.5718 5.15686 14.0856 5.69117 14.4313 5.33823ZM18.6356 9.87744H16.2252C15.7393 9.88725 15.7393 10.6421 16.2252 10.652H18.6356C19.1215 10.6421 19.1215 9.88725 18.6356 9.87744ZM14.4313 15.1863C14.0856 14.8333 13.5718 15.3676 13.9081 15.7353L15.6132 17.5245C15.9635 17.8774 16.4727 17.3431 16.1364 16.9755L14.4313 15.1863ZM9.58701 2.91176V0.382353C9.57766 -0.127451 8.85826 -0.127451 8.84892 0.382353V2.91176C8.85826 3.42157 9.57766 3.42157 9.58701 2.91176Z" fill="#006EDA"/>
</svg>
